<?xml version="1.0" encoding="UTF-8" standalone="no"?>
<!-- Created with Inkscape (http://www.inkscape.org/) -->

<svg
   xmlns:dc="http://purl.org/dc/elements/1.1/"
   xmlns:cc="http://creativecommons.org/ns#"
   xmlns:rdf="http://www.w3.org/1999/02/22-rdf-syntax-ns#"
   xmlns:svg="http://www.w3.org/2000/svg"
   xmlns="http://www.w3.org/2000/svg"
   xmlns:sodipodi="http://sodipodi.sourceforge.net/DTD/sodipodi-0.dtd"
   xmlns:inkscape="http://www.inkscape.org/namespaces/inkscape"
   width="1230.5488mm"
   height="1700.7584mm"
   viewBox="0 0 1230.5488 1700.7584"
   version="1.1"
   id="svg4860"
   inkscape:version="0.92.1 unknown"
   sodipodi:docname="Lantern.svg">
  <defs
     id="defs4854" />
  <sodipodi:namedview
     id="base"
     pagecolor="#ffffff"
     bordercolor="#666666"
     borderopacity="1.0"
     inkscape:pageopacity="0.0"
     inkscape:pageshadow="2"
     inkscape:zoom="0.052893067"
     inkscape:cx="2212.69"
     inkscape:cy="1527.9079"
     inkscape:document-units="mm"
     inkscape:current-layer="layer1"
     showgrid="false"
     inkscape:window-width="1327"
     inkscape:window-height="747"
     inkscape:window-x="39"
     inkscape:window-y="21"
     inkscape:window-maximized="1" />
  <metadata
     id="metadata4857">
    <rdf:RDF>
      <cc:Work
         rdf:about="">
        <dc:format>image/svg+xml</dc:format>
        <dc:type
           rdf:resource="http://purl.org/dc/dcmitype/StillImage" />
        <dc:title></dc:title>
      </cc:Work>
    </rdf:RDF>
  </metadata>
  <g
     inkscape:label="Layer 1"
     inkscape:groupmode="layer"
     id="layer1"
     transform="translate(635.94049,744.67194)">
    <g
       id="g4904"
       transform="translate(-16.289122,-118.09243)">
      <path
         style="color:#000000;clip-rule:nonzero;display:inline;overflow:visible;visibility:visible;opacity:1;isolation:auto;mix-blend-mode:normal;color-interpolation:sRGB;color-interpolation-filters:linearRGB;solid-color:#000000;solid-opacity:1;fill:#beb7c8;fill-opacity:1;fill-rule:nonzero;stroke:none;stroke-width:1.32291663;stroke-linecap:round;stroke-linejoin:round;stroke-miterlimit:4;stroke-dasharray:none;stroke-dashoffset:0;stroke-opacity:1;paint-order:markers stroke fill;color-rendering:auto;image-rendering:auto;shape-rendering:auto;text-rendering:auto;enable-background:accumulate"
         d="m 93.340973,-626.57951 v 857.7431 c -4.55459,6.15765 -11.221,17.21327 -11.221,29.18037 0,6.83154 3.03506,11.10985 6.40823,13.75675 h -13.45557 c -3.50554,0 -6.32759,2.82257 -6.32759,6.32804 0,1.50733 0.52282,2.88766 1.3965,3.97245 -1.15162,0.55748 -2.28558,1.15067 -3.40021,1.77879 -19.03286,10.98868 -30.75755,31.29651 -30.75752,53.27386 h -9.04632 c -5.01166,0 -9.04632,4.03463 -9.04632,9.0461 0,5.01174 4.03466,9.04637 9.04632,9.04637 h 9.04632 v 179.81717 h -9.04632 c -5.01166,0 -9.04632,4.0346 -9.04632,9.0464 0,5.0117 4.03466,9.0464 9.04632,9.0464 h 9.04632 c 0,21.977 11.72472,42.2849 30.75752,53.2735 1.11463,0.6282 2.24859,1.2214 3.40021,1.7788 -0.87368,1.0848 -1.3965,2.4652 -1.3965,3.9725 0,3.5057 2.82205,6.328 6.32759,6.328 h 18.26834 v 25.667 c -7.69725,1.9092 -13.1052,8.8151 -13.1133,16.7455 0.01,7.9293 5.41748,14.8328 13.1133,16.7417 v 4.2389 c -3.32075,1.5968 -5.43393,4.9538 -5.43742,8.6384 0.005,3.683 2.11809,7.0382 5.43742,8.6342 v 4.6704 c -3.32075,1.5968 -5.43393,4.9538 -5.43742,8.6384 0.005,3.683 2.11812,7.0382 5.43742,8.6339 v 4.6706 c -3.32067,1.5965 -5.43382,4.9536 -5.43742,8.6382 0.005,3.683 2.11802,7.0384 5.43742,8.6341 v 8.4931 c -2.72811,1.5277 -5.79299,4.4707 -5.79299,9.9939 0,11.7602 9.95087,22.1633 9.95087,22.1633 0,0 9.950897,-10.4031 9.950897,-22.1633 0,-5.5232 -3.06515,-8.4662 -5.79327,-9.9939 v -8.4889 c 3.32076,-1.5967 5.43394,-4.9538 5.43743,-8.6383 -0.005,-3.683 -2.11809,-7.0382 -5.43743,-8.6342 v -4.6704 c 3.32063,-1.5965 5.43378,-4.9535 5.43743,-8.6381 -0.005,-3.683 -2.11802,-7.0382 -5.43743,-8.6342 v -4.6707 c 3.32066,-1.5965 5.43381,-4.9535 5.43743,-8.6381 -0.005,-3.683 -2.11802,-7.0382 -5.43743,-8.6341 v -4.2394 c 7.69724,-1.9093 13.10513,-8.8149 13.11331,-16.7455 -0.01,-7.9288 -5.41753,-14.8326 -13.11331,-16.7413 v -25.6712 h 18.26835 c 3.50554,0 6.32759,-2.8223 6.32759,-6.328 0,-1.5192 -0.53078,-2.9099 -1.41701,-3.9984 1.15822,-0.5485 2.29899,-1.1332 3.4207,-1.7529 19.03282,-10.9886 30.75754,-31.2965 30.75754,-53.2735 h 9.04632 c 5.01166,0 9.04632,-4.0347 9.04632,-9.0464 0,-5.0118 -4.03466,-9.0464 -9.04632,-9.0464 h -9.04632 V 357.54632 h 9.04632 c 5.01166,0 9.04632,-4.03463 9.04632,-9.04637 0,-5.01147 -4.03466,-9.0461 -9.04632,-9.0461 h -9.04632 c 6e-5,-21.97735 -11.72466,-42.28518 -30.75754,-53.27386 -1.12171,-0.61965 -2.26248,-1.20411 -3.4207,-1.75286 0.88623,-1.08823 1.41701,-2.47915 1.41701,-3.99838 0,-3.50547 -2.82205,-6.32804 -6.32759,-6.32804 h -13.45557 c 3.37317,-2.6469 6.40823,-6.92521 6.40823,-13.75675 0,-11.9671 -6.66644,-23.02272 -11.22101,-29.18037 v -857.7431 z m 4.15761,995.53334 c 12.639437,0 22.815047,10.17536 22.815047,22.81476 v 134.1874 H 74.683803 v -134.1874 c 0,-12.6394 10.17537,-22.81476 22.81478,-22.81476 z m -53.4703,0.0709 c 11.7856,0.9181 21.0023,10.71486 21.0023,22.74386 v 134.1874 h -21.0023 z m 106.940897,0 V 525.95599 H 129.9669 v -134.1874 c 0,-12.029 9.21668,-21.82576 21.00228,-22.74386 z"
         id="path4822"
         inkscape:connector-curvature="0"
         sodipodi:nodetypes="ccscsscccsssccssscccssccccccccccccccscsccccccccccccccsscccsssccssscccsscscccssccsscsccccccsc" />
      <path
         id="path4826"
         d="m -206.6592,-626.57911 v 347.74272 c -4.55459,6.15765 -11.221,17.21353 -11.221,29.18063 0,6.83154 3.03519,11.10985 6.40839,13.75675 h -13.45552 c -3.50554,0 -6.32777,2.82204 -6.32777,6.32777 0,1.50733 0.52313,2.8874 1.39681,3.97219 -1.15162,0.55748 -2.28571,1.1512 -3.40032,1.77932 -19.03285,10.98868 -30.75733,31.29598 -30.75728,53.27333 h -9.04647 c -5.01166,0 -9.04648,4.03463 -9.04648,9.04637 0,5.01147 4.03482,9.0461 9.04648,9.0461 h 9.04647 V 27.363524 h -9.04647 c -5.01166,0 -9.04648,4.03489 -9.04648,9.04637 0,5.01174 4.03482,9.04584 9.04648,9.04584 h 9.04647 c 0,21.97735 11.72448,42.28518 30.75728,53.27385 1.11461,0.62812 2.2487,1.22158 3.40032,1.779316 -0.87368,1.08453 -1.39681,2.4646 -1.39681,3.97219 0,3.50547 2.82223,6.32778 6.32777,6.32778 h 18.26813 v 25.66723 c -7.69728,1.90923 -13.10478,8.81512 -13.11288,16.74574 0.01,7.92904 5.41703,14.83254 13.11288,16.74125 v 4.23942 c -3.32078,1.59649 -5.43385,4.95353 -5.4374,8.63811 0.005,3.683 2.11805,7.03818 5.4374,8.63415 v 4.67069 c -3.32078,1.5965 -5.43385,4.95353 -5.4374,8.63812 0.005,3.683 2.1181,7.03818 5.4374,8.63415 v 4.67042 c -3.32068,1.59676 -5.43375,4.95326 -5.4374,8.63785 0.005,3.68327 2.11797,7.03845 5.4374,8.63441 v 8.49313 c -2.72814,1.52744 -5.79292,4.47066 -5.79292,9.99384 0,11.7602 9.95082,22.16335 9.95082,22.16335 0,0 9.95133,-10.40315 9.95133,-22.16335 0,-5.52318 -3.06531,-8.4664 -5.79345,-9.99384 v -8.48889 c 3.32078,-1.5965 5.43388,-4.95406 5.4374,-8.63865 -0.005,-3.683 -2.11805,-7.03765 -5.4374,-8.63362 v -4.67095 c 3.32062,-1.5965 5.43372,-4.95353 5.4374,-8.63785 -0.005,-3.68327 -2.11797,-7.03818 -5.4374,-8.63415 V 191.479 c 3.32068,-1.59676 5.43377,-4.95379 5.4374,-8.63838 -0.005,-3.68326 -2.11797,-7.03844 -5.4374,-8.63441 v -4.23915 c 7.69723,-1.90897 13.10526,-8.81486 13.11341,-16.74522 -0.01,-7.92903 -5.4176,-14.83254 -13.11341,-16.74151 v -25.67146 h 18.26813 c 3.50557,0 6.3278,-2.82231 6.3278,-6.32778 0,-1.5195 -0.53075,-2.91015 -1.41697,-3.99864 1.15821,-0.548486 2.29875,-1.132946 3.42045,-1.752866 19.03283,-10.98867 30.75779,-31.2965 30.75781,-53.27385 h 9.04648 c 5.01166,0 9.04597,-4.0341 9.04597,-9.04584 0,-5.01148 -4.03431,-9.04637 -9.04597,-9.04637 h -9.04648 V -152.45393 h 9.04648 c 5.01166,0 9.04597,-4.03463 9.04597,-9.0461 0,-5.01174 -4.03431,-9.04637 -9.04597,-9.04637 h -9.04648 c 3e-5,-21.97735 -11.72493,-42.28465 -30.75781,-53.27333 -1.1217,-0.61965 -2.26224,-1.20412 -3.42045,-1.75286 0.88622,-1.0885 1.41697,-2.47941 1.41697,-3.99865 0,-3.50573 -2.82223,-6.32777 -6.3278,-6.32777 h -13.45549 c 3.3732,-2.6469 6.40839,-6.92521 6.40839,-13.75675 0,-11.9671 -6.66644,-23.02298 -11.22103,-29.18063 v -347.74272 z m 4.1579,485.53322 c 12.63942,0 22.81513,10.17508 22.81513,22.81449 V 15.955744 h -45.62975 V -118.2314 c 0,-12.63941 10.17521,-22.81449 22.81462,-22.81449 z m -53.47012,0.0706 c 11.7856,0.91811 21.00181,10.71457 21.00181,22.74385 V 15.955704 h -21.00181 z m 106.94075,0 V 15.955744 H -170.033 V -118.2314 c 0,-12.02928 9.21673,-21.82574 21.00233,-22.74385 z"
         style="color:#000000;clip-rule:nonzero;display:inline;overflow:visible;visibility:visible;opacity:1;isolation:auto;mix-blend-mode:normal;color-interpolation:sRGB;color-interpolation-filters:linearRGB;solid-color:#000000;solid-opacity:1;fill:#beb7c8;fill-opacity:1;fill-rule:nonzero;stroke:none;stroke-width:1.32291663;stroke-linecap:round;stroke-linejoin:round;stroke-miterlimit:4;stroke-dasharray:none;stroke-dashoffset:0;stroke-opacity:1;paint-order:markers stroke fill;color-rendering:auto;image-rendering:auto;shape-rendering:auto;text-rendering:auto;enable-background:accumulate"
         inkscape:connector-curvature="0" />
      <path
         sodipodi:nodetypes="ccscsscccsssccssscccssccccccccccccccscsccccccccccccccsscccsssccssscccsscscccssccsscsccccccsc"
         inkscape:connector-curvature="0"
         id="path4816"
         d="m 363.34096,-626.57937 v 317.7432 c -4.55459,6.15765 -11.22103,17.21326 -11.22103,29.18036 0,6.83128 3.03506,11.10986 6.40826,13.75675 h -13.45557 c -3.50554,0 -6.32761,2.82231 -6.32761,6.32777 0,1.5076 0.52281,2.88793 1.39649,3.97246 -1.15162,0.55774 -2.28557,1.15094 -3.40018,1.77906 -19.03286,10.98867 -30.75758,31.29624 -30.75752,53.27359 h -9.04632 c -5.01166,0 -9.04632,4.03463 -9.04632,9.04637 0,5.01147 4.03466,9.0461 9.04632,9.0461 h 9.04632 V -2.6362565 h -9.04632 c -5.01166,0 -9.04632,4.03463 -9.04632,9.04637 0,5.0114705 4.03466,9.0461005 9.04632,9.0461005 h 9.04632 c 0,21.97735 11.72471,42.28518 30.75752,53.27359 1.11461,0.62812 2.24856,1.22158 3.40018,1.77906 -0.87368,1.08453 -1.39649,2.46486 -1.39649,3.97245 0,3.50547 2.82207,6.32778 6.32761,6.32778 h 18.26834 v 25.667226 c -7.69728,1.90923 -13.10521,8.81512 -13.1133,16.74548 0.01,7.92903 5.41745,14.8328 13.1133,16.74151 v 4.23915 c -3.32078,1.5965 -5.43393,4.95379 -5.43745,8.63838 0.005,3.683 2.1181,7.03818 5.43745,8.63389 v 4.67068 c -3.32078,1.5965 -5.43393,4.9538 -5.43745,8.63839 0.005,3.683 2.11815,7.03791 5.43745,8.63388 v 4.67042 c -3.32068,1.59676 -5.43382,4.9538 -5.43745,8.63812 0.005,3.68327 2.11802,7.03845 5.43745,8.63441 v 8.49313 c -2.72814,1.52744 -5.79302,4.47066 -5.79302,9.99384 0,11.7602 9.9509,22.16309 9.9509,22.16309 0,0 9.9509,-10.40289 9.9509,-22.16309 0,-5.52318 -3.06515,-8.4664 -5.79329,-9.99384 v -8.48916 c 3.32078,-1.59649 5.43393,-4.95379 5.43745,-8.63838 -0.005,-3.683 -2.1181,-7.03792 -5.43745,-8.63388 v -4.67069 c 3.32062,-1.59623 5.43377,-4.95353 5.43745,-8.63785 -0.005,-3.68327 -2.11802,-7.03845 -5.43745,-8.63415 v -4.67069 c 3.32068,-1.5965 5.43382,-4.95353 5.43745,-8.63812 -0.005,-3.68326 -2.11802,-7.03844 -5.43745,-8.63415 v -4.23941 c 7.69723,-1.90924 13.10513,-8.81486 13.1133,-16.74548 -0.01,-7.92877 -5.4175,-14.83255 -13.1133,-16.74151 V 80.809094 h 18.26834 c 3.50557,0 6.32759,-2.82231 6.32759,-6.32778 0,-1.5195 -0.53076,-2.91015 -1.41698,-3.99838 1.15822,-0.54875 2.29899,-1.13321 3.4207,-1.75313 19.03282,-10.98841 30.75752,-31.29624 30.75754,-53.27359 h 9.04632 c 5.01166,0 9.04631,-4.03463 9.04631,-9.0461005 0,-5.01174 -4.03465,-9.04637 -9.04631,-9.04637 h -9.04632 V -182.45371 h 9.04632 c 5.01166,0 9.04631,-4.03463 9.04631,-9.0461 0,-5.01174 -4.03465,-9.04637 -9.04631,-9.04637 h -9.04632 c 3e-5,-21.97735 -11.72466,-42.28492 -30.75754,-53.27359 -1.12171,-0.61992 -2.26248,-1.20439 -3.4207,-1.75287 0.88622,-1.08849 1.41698,-2.47914 1.41698,-3.99865 0,-3.50546 -2.82202,-6.32777 -6.32759,-6.32777 h -13.45557 c 3.3732,-2.64689 6.40826,-6.92547 6.40826,-13.75675 0,-11.9671 -6.66644,-23.02271 -11.22103,-29.18036 v -317.7432 z m 4.15761,455.53343 c 12.63941,0 22.81505,10.17535 22.81505,22.81476 V -14.043766 H 344.68379 V -148.23118 c 0,-12.63941 10.17537,-22.81476 22.81478,-22.81476 z m -53.47033,0.0709 c 11.7856,0.91811 21.00231,10.71457 21.00231,22.74385 v 134.187414 h -21.00231 z m 106.94093,0 V -14.043766 H 399.96686 V -148.23118 c 0,-12.02928 9.21671,-21.82574 21.00231,-22.74385 z"
         style="color:#000000;clip-rule:nonzero;display:inline;overflow:visible;visibility:visible;opacity:1;isolation:auto;mix-blend-mode:normal;color-interpolation:sRGB;color-interpolation-filters:linearRGB;solid-color:#000000;solid-opacity:1;fill:#beb7c8;fill-opacity:1;fill-rule:nonzero;stroke:none;stroke-width:1.32291663;stroke-linecap:round;stroke-linejoin:round;stroke-miterlimit:4;stroke-dasharray:none;stroke-dashoffset:0;stroke-opacity:1;paint-order:markers stroke fill;color-rendering:auto;image-rendering:auto;shape-rendering:auto;text-rendering:auto;enable-background:accumulate" />
      <g
         style="stroke-width:1.35719073"
         transform="matrix(0.19494926,0,0,0.19494926,-547.35461,-2811.2002)"
         id="g4804">
        <path
           inkscape:connector-curvature="0"
           id="path4754"
           d="m 1001.0566,11206.1 v 651.893 c -32.09836,43.396 -79.08006,121.31 -79.08006,205.648 0,48.145 21.3896,78.297 45.1621,96.951 h -94.8281 c -24.7053,0 -44.5937,19.891 -44.5937,44.596 0,10.624 3.6845,20.352 9.8418,27.996 a 433.52636,433.52636 0 0 0 -23.9629,12.537 433.52636,433.52636 0 0 0 -216.7636,375.446 h -63.7539 c -35.3197,0 -63.7539,28.434 -63.7539,63.754 0,35.319 28.4342,63.753 63.7539,63.753 h 63.7539 v 1267.262 h -63.7539 c -35.3197,0 -63.7539,28.434 -63.7539,63.754 0,35.32 28.4342,63.754 63.7539,63.754 h 63.7539 a 433.52636,433.52636 0 0 0 216.7636,375.445 433.52636,433.52636 0 0 0 23.9629,12.537 c -6.1573,7.644 -9.8418,17.372 -9.8418,27.996 0,24.706 19.8884,44.596 44.5937,44.596 h 128.74606 v 180.889 a 121.71815,121.71815 0 0 0 -92.41596,118.014 121.71815,121.71815 0 0 0 92.41596,117.986 v 29.875 a 67.621195,67.621195 0 0 0 -38.32026,60.879 67.621195,67.621195 0 0 0 38.32026,60.848 v 32.916 a 67.621195,67.621195 0 0 0 -38.32026,60.879 67.621195,67.621195 0 0 0 38.32026,60.847 v 32.916 a 67.621195,67.621195 0 0 0 -38.32026,60.877 67.621195,67.621195 0 0 0 38.32026,60.85 v 59.855 c -19.22646,10.766 -40.82616,31.507 -40.82616,70.432 0,82.88 70.12886,156.195 70.12886,156.195 0,0 70.1289,-73.315 70.1289,-156.195 0,-38.925 -21.6016,-59.666 -40.8281,-70.432 v -59.826 a 67.621195,67.621195 0 0 0 38.3203,-60.879 67.621195,67.621195 0 0 0 -38.3203,-60.848 v -32.916 a 67.621195,67.621195 0 0 0 38.3203,-60.876 67.621195,67.621195 0 0 0 -38.3203,-60.85 v -32.916 a 67.621195,67.621195 0 0 0 38.3203,-60.877 67.621195,67.621195 0 0 0 -38.3203,-60.85 v -29.877 a 121.71815,121.71815 0 0 0 92.416,-118.013 121.71815,121.71815 0 0 0 -92.416,-117.985 v -180.918 h 128.7461 c 24.7054,0 44.5937,-19.89 44.5937,-44.596 0,-10.708 -3.7406,-20.508 -9.9863,-28.179 a 433.52636,433.52636 0 0 0 24.1074,-12.354 433.52636,433.52636 0 0 0 216.7637,-375.445 h 63.7539 c 35.3197,0 63.7539,-28.434 63.7539,-63.754 0,-35.32 -28.4342,-63.754 -63.7539,-63.754 h -63.7539 v -1267.262 h 63.7539 c 35.3197,0 63.7539,-28.434 63.7539,-63.753 0,-35.32 -28.4342,-63.754 -63.7539,-63.754 h -63.7539 a 433.52636,433.52636 0 0 0 -216.7637,-375.446 433.52636,433.52636 0 0 0 -24.1074,-12.353 c 6.2457,-7.671 9.9863,-17.472 9.9863,-28.18 0,-24.705 -19.8883,-44.596 -44.5937,-44.596 h -94.8281 c 23.7725,-18.654 45.1621,-48.806 45.1621,-96.951 0,-84.338 -46.9817,-162.252 -79.0801,-205.648 V 11206.1 Z m 29.3008,1622.969 c 89.0763,0 160.789,71.711 160.789,160.787 v 945.686 H 869.57024 v -945.686 c 0,-89.076 71.711,-160.787 160.78716,-160.787 z m -376.83196,0.5 c 83.059,6.47 148.0137,75.512 148.0137,160.287 v 945.686 h -148.0137 z m 753.66586,0 v 1105.973 h -148.0136 v -945.686 c 0,-84.775 64.9546,-153.817 148.0136,-160.287 z"
           style="color:#000000;clip-rule:nonzero;display:inline;overflow:visible;visibility:visible;opacity:1;isolation:auto;mix-blend-mode:normal;color-interpolation:sRGB;color-interpolation-filters:linearRGB;solid-color:#000000;solid-opacity:1;fill:#d4aa00;fill-opacity:1;fill-rule:nonzero;stroke:none;stroke-width:6.785954;stroke-linecap:round;stroke-linejoin:round;stroke-miterlimit:4;stroke-dasharray:none;stroke-dashoffset:0;stroke-opacity:1;paint-order:markers stroke fill;color-rendering:auto;image-rendering:auto;shape-rendering:auto;text-rendering:auto;enable-background:accumulate" />
        <path
           id="path4756"
           d="m 1059.6606,11624.378 a 1387.6971,2492.5516 0 0 0 -58.6035,182.538 v 51.078 c -7.07146,9.56 -14.86596,20.799 -22.72066,33.41 a 1387.6971,2492.5516 0 0 0 -49.6289,215.525 c 8.1606,24.109 22.7779,41.381 38.4316,53.664 h -49.3378 a 1387.6971,2492.5516 0 0 0 -72.8633,790.153 1387.6971,2492.5516 0 0 0 24.6328,459.191 v -420.08 c 0,-89.076 71.7109,-160.787 160.78706,-160.787 89.0763,0 160.7891,71.711 160.7891,160.787 v 945.685 H 959.58054 a 1387.6971,2492.5516 0 0 0 236.51366,667.809 c 21.014,-3.625 36.9063,-21.846 36.9063,-43.928 0,-10.708 -3.7407,-20.508 -9.9864,-28.179 a 433.52637,433.52637 0 0 0 24.1075,-12.354 433.52637,433.52637 0 0 0 216.7636,-375.445 h 63.7539 c 35.3197,0 63.7539,-28.434 63.7539,-63.754 0,-35.32 -28.4342,-63.754 -63.7539,-63.754 h -63.7539 v -1267.262 h 63.7539 c 35.3197,0 63.7539,-28.435 63.7539,-63.754 0,-35.32 -28.4342,-63.754 -63.7539,-63.754 h -63.7539 a 433.52637,433.52637 0 0 0 -216.7636,-375.445 433.52637,433.52637 0 0 0 -24.1075,-12.353 c 6.2457,-7.671 9.9864,-17.472 9.9864,-28.18 0,-24.705 -19.8884,-44.596 -44.5938,-44.596 h -94.8281 c 23.7725,-18.654 45.1621,-48.806 45.1621,-96.951 0,-84.338 -46.9817,-162.252 -79.0801,-205.648 z m 347.5313,1205.192 v 1105.972 h -148.0137 v -945.685 c 0,-84.775 64.9547,-153.817 148.0137,-160.287 z"
           style="color:#000000;clip-rule:nonzero;display:inline;overflow:visible;visibility:visible;opacity:1;isolation:auto;mix-blend-mode:normal;color-interpolation:sRGB;color-interpolation-filters:linearRGB;solid-color:#000000;solid-opacity:1;fill:#ffd42a;fill-opacity:1;fill-rule:nonzero;stroke:none;stroke-width:6.785954;stroke-linecap:round;stroke-linejoin:round;stroke-miterlimit:4;stroke-dasharray:none;stroke-dashoffset:0;stroke-opacity:1;paint-order:markers stroke fill;color-rendering:auto;image-rendering:auto;shape-rendering:auto;text-rendering:auto;enable-background:accumulate"
           inkscape:connector-curvature="0" />
      </g>
      <g
         style="stroke-width:0.94355029"
         transform="matrix(0.28041253,0,0,0.28041253,-785.02166,-3768.9103)"
         id="g4808">
        <path
           style="color:#000000;clip-rule:nonzero;display:inline;overflow:visible;visibility:visible;opacity:1;isolation:auto;mix-blend-mode:normal;color-interpolation:sRGB;color-interpolation-filters:linearRGB;solid-color:#000000;solid-opacity:1;fill:#2ad4ff;fill-opacity:1;fill-rule:nonzero;stroke:none;stroke-width:4.7177515;stroke-linecap:round;stroke-linejoin:round;stroke-miterlimit:4;stroke-dasharray:none;stroke-dashoffset:0;stroke-opacity:1;paint-order:markers stroke fill;color-rendering:auto;image-rendering:auto;shape-rendering:auto;text-rendering:auto;enable-background:accumulate"
           d="m 2588.4578,11206.1 v 651.893 c -32.0984,43.396 -79.0801,121.31 -79.0801,205.648 0,48.145 21.3896,78.297 45.1621,96.951 h -94.8281 c -24.7053,0 -44.5937,19.891 -44.5937,44.596 0,10.624 3.6845,20.352 9.8418,27.996 a 433.52636,433.52636 0 0 0 -23.9629,12.537 433.52636,433.52636 0 0 0 -216.7636,375.446 h -63.7539 c -35.3197,0 -63.7539,28.434 -63.7539,63.754 0,35.319 28.4342,63.753 63.7539,63.753 h 63.7539 v 1267.262 h -63.7539 c -35.3197,0 -63.7539,28.434 -63.7539,63.754 0,35.32 28.4342,63.754 63.7539,63.754 h 63.7539 a 433.52636,433.52636 0 0 0 216.7636,375.445 433.52636,433.52636 0 0 0 23.9629,12.537 c -6.1573,7.644 -9.8418,17.372 -9.8418,27.996 0,24.706 19.8884,44.596 44.5937,44.596 h 128.7461 v 180.889 a 121.71815,121.71815 0 0 0 -92.416,118.014 121.71815,121.71815 0 0 0 92.416,117.986 v 29.875 a 67.621195,67.621195 0 0 0 -38.3203,60.879 67.621195,67.621195 0 0 0 38.3203,60.848 v 32.916 a 67.621195,67.621195 0 0 0 -38.3203,60.879 67.621195,67.621195 0 0 0 38.3203,60.847 v 32.916 a 67.621195,67.621195 0 0 0 -38.3203,60.877 67.621195,67.621195 0 0 0 38.3203,60.85 v 59.855 c -19.2265,10.766 -40.8262,31.507 -40.8262,70.432 0,82.88 70.1289,156.195 70.1289,156.195 0,0 70.1289,-73.315 70.1289,-156.195 0,-38.925 -21.6016,-59.666 -40.8281,-70.432 v -59.826 a 67.621195,67.621195 0 0 0 38.3203,-60.879 67.621195,67.621195 0 0 0 -38.3203,-60.848 v -32.916 a 67.621195,67.621195 0 0 0 38.3203,-60.876 67.621195,67.621195 0 0 0 -38.3203,-60.85 v -32.916 a 67.621195,67.621195 0 0 0 38.3203,-60.877 67.621195,67.621195 0 0 0 -38.3203,-60.85 v -29.877 a 121.71815,121.71815 0 0 0 92.416,-118.013 121.71815,121.71815 0 0 0 -92.416,-117.985 v -180.918 h 128.7461 c 24.7054,0 44.5937,-19.89 44.5937,-44.596 0,-10.708 -3.7406,-20.508 -9.9863,-28.179 a 433.52636,433.52636 0 0 0 24.1074,-12.354 433.52636,433.52636 0 0 0 216.7637,-375.445 h 63.7539 c 35.3197,0 63.7539,-28.434 63.7539,-63.754 0,-35.32 -28.4342,-63.754 -63.7539,-63.754 h -63.7539 v -1267.262 h 63.7539 c 35.3197,0 63.7539,-28.434 63.7539,-63.753 0,-35.32 -28.4342,-63.754 -63.7539,-63.754 h -63.7539 a 433.52636,433.52636 0 0 0 -216.7637,-375.446 433.52636,433.52636 0 0 0 -24.1074,-12.353 c 6.2457,-7.671 9.9863,-17.472 9.9863,-28.18 0,-24.705 -19.8883,-44.596 -44.5937,-44.596 h -94.8281 c 23.7725,-18.654 45.1621,-48.806 45.1621,-96.951 0,-84.338 -46.9817,-162.252 -79.0801,-205.648 V 11206.1 Z m 29.3008,1622.969 c 89.0763,0 160.789,71.711 160.789,160.787 v 945.686 h -321.5762 v -945.686 c 0,-89.076 71.711,-160.787 160.7872,-160.787 z m -376.832,0.5 c 83.059,6.47 148.0137,75.512 148.0137,160.287 v 945.686 h -148.0137 z m 753.6659,0 v 1105.973 h -148.0136 v -945.686 c 0,-84.775 64.9546,-153.817 148.0136,-160.287 z"
           id="path4758"
           inkscape:connector-curvature="0" />
        <path
           inkscape:connector-curvature="0"
           style="color:#000000;clip-rule:nonzero;display:inline;overflow:visible;visibility:visible;opacity:1;isolation:auto;mix-blend-mode:normal;color-interpolation:sRGB;color-interpolation-filters:linearRGB;solid-color:#000000;solid-opacity:1;fill:#80e5ff;fill-opacity:1;fill-rule:nonzero;stroke:none;stroke-width:4.7177515;stroke-linecap:round;stroke-linejoin:round;stroke-miterlimit:4;stroke-dasharray:none;stroke-dashoffset:0;stroke-opacity:1;paint-order:markers stroke fill;color-rendering:auto;image-rendering:auto;shape-rendering:auto;text-rendering:auto;enable-background:accumulate"
           d="m 2647.0618,11624.378 a 1387.6971,2492.5516 0 0 0 -58.6035,182.538 v 51.078 c -7.0715,9.56 -14.866,20.799 -22.7207,33.41 a 1387.6971,2492.5516 0 0 0 -49.6289,215.525 c 8.1606,24.109 22.7779,41.381 38.4316,53.664 h -49.3378 a 1387.6971,2492.5516 0 0 0 -72.8633,790.153 1387.6971,2492.5516 0 0 0 24.6328,459.191 v -420.08 c 0,-89.076 71.7109,-160.787 160.7871,-160.787 89.0763,0 160.7891,71.711 160.7891,160.787 v 945.685 h -231.5665 a 1387.6971,2492.5516 0 0 0 236.5137,667.809 c 21.014,-3.625 36.9063,-21.846 36.9063,-43.928 0,-10.708 -3.7407,-20.508 -9.9864,-28.179 a 433.52637,433.52637 0 0 0 24.1075,-12.354 433.52637,433.52637 0 0 0 216.7636,-375.445 h 63.7539 c 35.3197,0 63.7539,-28.434 63.7539,-63.754 0,-35.32 -28.4342,-63.754 -63.7539,-63.754 h -63.7539 v -1267.262 h 63.7539 c 35.3197,0 63.7539,-28.435 63.7539,-63.754 0,-35.32 -28.4342,-63.754 -63.7539,-63.754 h -63.7539 a 433.52637,433.52637 0 0 0 -216.7636,-375.445 433.52637,433.52637 0 0 0 -24.1075,-12.353 c 6.2457,-7.671 9.9864,-17.472 9.9864,-28.18 0,-24.705 -19.8884,-44.596 -44.5938,-44.596 h -94.8281 c 23.7725,-18.654 45.1621,-48.806 45.1621,-96.951 0,-84.338 -46.9817,-162.252 -79.0801,-205.648 z m 347.5313,1205.192 v 1105.972 h -148.0137 v -945.685 c 0,-84.775 64.9547,-153.817 148.0137,-160.287 z"
           id="path4760" />
      </g>
      <g
         style="stroke-width:1.35719073"
         transform="matrix(0.19494926,0,0,0.19494926,-602.93372,-2501.7375)"
         id="g4812">
        <path
           sodipodi:nodetypes="ccscsscccsssccssscccssccccccccccccccscsccccccccccccccsscccsssccssscccsscscccssccsscsccccccsc"
           inkscape:connector-curvature="0"
           id="path4762"
           d="m 4320.8694,9618.6985 v 2239.2945 c -32.0984,43.396 -79.0801,121.31 -79.0801,205.648 0,48.145 21.3896,78.297 45.1621,96.951 h -94.8281 c -24.7053,0 -44.5937,19.891 -44.5937,44.596 0,10.624 3.6845,20.352 9.8418,27.996 -8.1161,3.929 -16.1076,8.11 -23.9629,12.537 -134.134,77.442 -216.7639,220.561 -216.7636,375.446 h -63.7539 c -35.3197,0 -63.7539,28.434 -63.7539,63.754 0,35.319 28.4342,63.753 63.7539,63.753 h 63.7539 v 1267.262 h -63.7539 c -35.3197,0 -63.7539,28.434 -63.7539,63.754 0,35.32 28.4342,63.754 63.7539,63.754 h 63.7539 c 0,154.884 82.6299,298.003 216.7636,375.445 7.8553,4.427 15.8468,8.608 23.9629,12.537 -6.1573,7.644 -9.8418,17.372 -9.8418,27.996 0,24.706 19.8884,44.596 44.5937,44.596 h 128.7461 v 180.889 c -54.2465,13.455 -92.3589,62.124 -92.416,118.014 0.07,55.88 38.1796,104.534 92.416,117.986 v 29.875 c -23.4031,11.252 -38.2956,34.912 -38.3203,60.879 0.037,25.956 14.9273,49.601 38.3203,60.848 v 32.916 c -23.4031,11.252 -38.2956,34.912 -38.3203,60.879 0.037,25.956 14.9276,49.6 38.3203,60.847 v 32.916 c -23.4024,11.252 -38.2948,34.91 -38.3203,60.877 0.036,25.957 14.9267,49.603 38.3203,60.85 v 59.855 c -19.2265,10.766 -40.8262,31.507 -40.8262,70.432 0,82.88 70.1289,156.195 70.1289,156.195 0,0 70.1289,-73.315 70.1289,-156.195 0,-38.925 -21.6016,-59.666 -40.8281,-70.432 v -59.826 c 23.4031,-11.252 38.2956,-34.912 38.3203,-60.879 -0.037,-25.956 -14.9273,-49.601 -38.3203,-60.848 v -32.916 c 23.4021,-11.251 38.2945,-34.91 38.3203,-60.876 -0.036,-25.957 -14.9267,-49.603 -38.3203,-60.85 v -32.916 c 23.4024,-11.252 38.2948,-34.91 38.3203,-60.877 -0.036,-25.957 -14.9267,-49.603 -38.3203,-60.85 v -29.877 c 54.2462,-13.455 92.3584,-62.123 92.416,-118.013 -0.07,-55.879 -38.18,-104.533 -92.416,-117.985 v -180.918 h 128.7461 c 24.7054,0 44.5937,-19.89 44.5937,-44.596 0,-10.708 -3.7406,-20.508 -9.9863,-28.179 8.1625,-3.866 16.2022,-7.986 24.1074,-12.354 134.1338,-77.442 216.7636,-220.561 216.7637,-375.445 h 63.7539 c 35.3197,0 63.7539,-28.434 63.7539,-63.754 0,-35.32 -28.4342,-63.754 -63.7539,-63.754 h -63.7539 v -1267.262 h 63.7539 c 35.3197,0 63.7539,-28.434 63.7539,-63.753 0,-35.32 -28.4342,-63.754 -63.7539,-63.754 h -63.7539 c 3e-4,-154.885 -82.6296,-298.004 -216.7637,-375.446 -7.9052,-4.368 -15.9449,-8.487 -24.1074,-12.353 6.2457,-7.671 9.9863,-17.472 9.9863,-28.18 0,-24.705 -19.8883,-44.596 -44.5937,-44.596 h -94.8281 c 23.7725,-18.654 45.1621,-48.806 45.1621,-96.951 0,-84.338 -46.9817,-162.252 -79.0801,-205.648 V 9618.6985 Z m 29.3008,3210.3705 c 89.0763,0 160.789,71.711 160.789,160.787 v 945.686 H 4189.383 v -945.686 c 0,-89.076 71.711,-160.787 160.7872,-160.787 z m -376.832,0.5 c 83.059,6.47 148.0137,75.512 148.0137,160.287 v 945.686 h -148.0137 z m 753.6659,0 v 1105.973 h -148.0136 v -945.686 c 0,-84.775 64.9546,-153.817 148.0136,-160.287 z"
           style="color:#000000;clip-rule:nonzero;display:inline;overflow:visible;visibility:visible;opacity:1;isolation:auto;mix-blend-mode:normal;color-interpolation:sRGB;color-interpolation-filters:linearRGB;solid-color:#000000;solid-opacity:1;fill:#0044aa;fill-opacity:1;fill-rule:nonzero;stroke:none;stroke-width:6.785954;stroke-linecap:round;stroke-linejoin:round;stroke-miterlimit:4;stroke-dasharray:none;stroke-dashoffset:0;stroke-opacity:1;paint-order:markers stroke fill;color-rendering:auto;image-rendering:auto;shape-rendering:auto;text-rendering:auto;enable-background:accumulate" />
        <path
           id="path4764"
           d="m 4379.4734,11624.378 a 1387.6971,2492.5516 0 0 0 -58.6035,182.538 v 51.078 c -7.0715,9.56 -14.866,20.799 -22.7207,33.41 a 1387.6971,2492.5516 0 0 0 -49.6289,215.525 c 8.1606,24.109 22.7779,41.381 38.4316,53.664 h -49.3378 a 1387.6971,2492.5516 0 0 0 -72.8633,790.153 1387.6971,2492.5516 0 0 0 24.6328,459.191 v -420.08 c 0,-89.076 71.7109,-160.787 160.7871,-160.787 89.0763,0 160.7891,71.711 160.7891,160.787 v 945.685 h -231.5665 a 1387.6971,2492.5516 0 0 0 236.5137,667.809 c 21.014,-3.625 36.9063,-21.846 36.9063,-43.928 0,-10.708 -3.7407,-20.508 -9.9864,-28.179 a 433.52637,433.52637 0 0 0 24.1075,-12.354 433.52637,433.52637 0 0 0 216.7636,-375.445 h 63.7539 c 35.3197,0 63.7539,-28.434 63.7539,-63.754 0,-35.32 -28.4342,-63.754 -63.7539,-63.754 h -63.7539 v -1267.262 h 63.7539 c 35.3197,0 63.7539,-28.435 63.7539,-63.754 0,-35.32 -28.4342,-63.754 -63.7539,-63.754 h -63.7539 a 433.52637,433.52637 0 0 0 -216.7636,-375.445 433.52637,433.52637 0 0 0 -24.1075,-12.353 c 6.2457,-7.671 9.9864,-17.472 9.9864,-28.18 0,-24.705 -19.8884,-44.596 -44.5938,-44.596 h -94.8281 c 23.7725,-18.654 45.1621,-48.806 45.1621,-96.951 0,-84.338 -46.9817,-162.252 -79.0801,-205.648 z m 347.5313,1205.192 v 1105.972 H 4578.991 v -945.685 c 0,-84.775 64.9547,-153.817 148.0137,-160.287 z"
           style="color:#000000;clip-rule:nonzero;display:inline;overflow:visible;visibility:visible;opacity:1;isolation:auto;mix-blend-mode:normal;color-interpolation:sRGB;color-interpolation-filters:linearRGB;solid-color:#000000;solid-opacity:1;fill:#0066ff;fill-opacity:1;fill-rule:nonzero;stroke:none;stroke-width:6.785954;stroke-linecap:round;stroke-linejoin:round;stroke-miterlimit:4;stroke-dasharray:none;stroke-dashoffset:0;stroke-opacity:1;paint-order:markers stroke fill;color-rendering:auto;image-rendering:auto;shape-rendering:auto;text-rendering:auto;enable-background:accumulate"
           inkscape:connector-curvature="0" />
      </g>
    </g>
  </g>
</svg>
